<svg width="20" height="22" viewBox="0 0 20 22" fill="none" xmlns="http://www.w3.org/2000/svg">
<path d="M9.77607 21.4685C10.4367 21.4683 11.0807 21.2622 11.6187 20.879C12.1567 20.4958 12.562 19.9545 12.7781 19.3303L6.76641 19.3401C6.98476 19.9635 7.39193 20.5035 7.93131 20.885C8.47069 21.2665 9.11549 21.4704 9.77607 21.4685ZM17.2285 13.5482L17.2198 8.65654C17.2136 5.2251 14.8778 2.33822 11.7189 1.47401C11.405 0.687317 10.6403 0.13389 9.73787 0.13535C8.83547 0.13681 8.07274 0.692707 7.76162 1.48041C4.60587 2.35591 2.28039 5.24925 2.28654 8.68069L2.2953 13.5724L0.477773 15.3961C0.378705 15.4952 0.300209 15.6128 0.246804 15.7423C0.193399 15.8719 0.166138 16.0107 0.166592 16.1508L0.168503 17.2174C0.169009 17.5003 0.281875 17.7714 0.48227 17.9711C0.682666 18.1709 0.954176 18.2828 1.23707 18.2823L18.3036 18.2547C18.5865 18.2543 18.8576 18.1415 19.0573 17.9411C19.257 17.7407 19.3689 17.4692 19.3684 17.1864L19.3664 16.1197C19.3664 15.9796 19.3386 15.8409 19.2848 15.7115C19.2309 15.5822 19.152 15.4648 19.0526 15.3661L17.2285 13.5482Z" fill="#002175"/>
</svg>
