<svg width="13" height="12" viewBox="0 0 13 12" fill="none" xmlns="http://www.w3.org/2000/svg">
<path d="M10.6938 9.57623L12.3733 11.1663C12.4516 11.2431 12.4951 11.3461 12.4943 11.453C12.4935 11.56 12.4486 11.6624 12.3691 11.7382C12.2897 11.8139 12.1821 11.857 12.0695 11.8581C11.957 11.8592 11.8485 11.8183 11.7674 11.7441L10.0879 10.1533C8.99379 11.0472 7.57793 11.5037 6.13738 11.4269C4.69683 11.3501 3.34357 10.746 2.36157 9.74134C1.37956 8.73668 0.845144 7.40958 0.870457 6.03851C0.89577 4.66744 1.47884 3.35897 2.49733 2.38768C3.51582 1.41639 4.89054 0.857769 6.33304 0.829044C7.77554 0.80032 9.17367 1.30372 10.2341 2.23362C11.2945 3.16351 11.9347 4.44762 12.0204 5.81648C12.1061 7.18534 11.6307 8.53255 10.6938 9.57542L10.6938 9.57623ZM6.45804 10.6193C7.71034 10.6173 8.9105 10.1426 9.79451 9.29952C10.6785 8.45648 11.1739 7.3142 11.1718 6.12398C11.1697 4.93377 10.6702 3.7931 9.78314 2.95292C8.89612 2.11275 7.69427 1.64188 6.44196 1.6439C5.18966 1.64593 3.9895 2.12068 3.10549 2.96373C2.22149 3.80677 1.72605 4.94904 1.72819 6.13926C1.73032 7.32948 2.22984 8.47014 3.11686 9.31032C4.00388 10.1505 5.20573 10.6214 6.45804 10.6193Z" fill="#A2A3A4"/>
</svg>
